<?xml version="1.0" standalone="no"?>
<!DOCTYPE svg PUBLIC "-//W3C//DTD SVG 20010904//EN"
 "http://www.w3.org/TR/2001/REC-SVG-20010904/DTD/svg10.dtd">
<svg version="1.0" xmlns="http://www.w3.org/2000/svg"
 width="183.000000pt" height="183.000000pt" viewBox="0 0 183.000000 183.000000"
 preserveAspectRatio="xMidYMid meet">
<metadata>
Created by potrace 1.11, written by Peter Selinger 2001-2013
</metadata>
<g transform="translate(0.000000,183.000000) scale(0.100000,-0.100000)"
fill="#000000" stroke="none">
<path d="M1 1498 c1 -269 4 -334 15 -345 8 -8 14 -11 14 -6 0 5 -5 14 -10 19
-17 17 11 33 39 23 18 -7 21 -12 13 -22 -6 -7 -8 -24 -5 -37 4 -16 3 -21 -5
-16 -7 4 -12 14 -12 22 0 10 -7 7 -25 -10 l-25 -25 0 -551 0 -550 915 0 915 0
0 295 c0 250 -2 295 -14 295 -10 0 -13 -8 -11 -23 4 -21 4 -21 -10 -3 -15 19
-15 19 -15 -2 0 -12 -5 -22 -11 -22 -5 0 -9 10 -7 22 2 16 -3 23 -17 26 -16 2
-17 1 -5 -7 13 -9 13 -11 -2 -11 -22 0 -34 20 -18 30 7 5 23 6 34 3 56 -13 76
-7 76 22 0 17 -6 25 -17 26 -15 0 -15 2 2 9 19 8 19 9 -2 9 -28 1 -30 21 -3
28 18 5 20 14 20 90 0 72 -2 84 -15 79 -8 -3 -15 -1 -15 4 0 6 6 10 14 10 12
0 15 21 14 116 0 105 -2 117 -19 121 -11 3 -19 14 -19 27 1 20 2 20 14 4 7
-10 16 -18 19 -18 3 0 6 158 7 350 l0 350 -915 0 -916 0 2 -332z m871 277 c3
-14 1 -28 -3 -31 -5 -3 -9 9 -9 25 0 38 6 40 12 6z m48 17 c0 -5 -7 -17 -15
-28 -14 -18 -14 -18 -15 9 0 17 5 27 15 27 8 0 15 -4 15 -8z m-96 -17 c-5 -11
-2 -13 10 -9 9 3 16 2 16 -4 0 -5 -9 -12 -20 -15 -16 -4 -20 0 -20 19 0 13 4
24 10 24 5 0 7 -7 4 -15z m126 -6 c0 -5 -4 -7 -10 -4 -5 3 -10 1 -10 -4 0 -6
5 -11 10 -11 6 0 10 -20 10 -45 0 -29 -4 -45 -12 -45 -10 0 -9 -3 1 -9 9 -6
11 -18 5 -42 -4 -19 -7 -37 -6 -41 1 -5 -3 -8 -8 -8 -6 0 -11 12 -11 28 -2 24
-2 24 -6 4 -5 -26 -12 -30 -70 -36 -36 -3 -42 -1 -47 17 -11 40 -6 67 14 87
25 25 30 25 31 3 1 -17 2 -17 6 -1 2 10 -1 24 -9 31 -10 12 -15 12 -26 0 -18
-17 -28 -17 -36 3 -7 19 2 37 14 29 5 -3 19 -1 30 5 14 8 20 8 20 0 0 -6 4 -9
9 -6 13 8 42 -4 35 -15 -4 -7 34 -29 50 -29 1 0 0 16 -2 35 -2 20 -8 32 -14
29 -6 -4 -5 3 1 15 12 22 31 29 31 10z m140 -7 c0 -11 -8 -18 -21 -19 -21 -2
-21 -2 -3 17 24 24 24 24 24 2z m-445 -38 c20 5 24 1 34 -39 6 -24 11 -52 11
-62 -1 -17 -1 -17 -14 0 -18 23 -29 22 -16 -3 6 -11 8 -20 4 -20 -3 0 -1 -6 6
-14 6 -8 18 -12 26 -9 9 3 14 -2 14 -16 0 -12 -6 -21 -14 -21 -8 0 -23 -3 -33
-6 -16 -6 -16 -5 2 9 16 12 17 18 8 28 -9 9 -15 6 -25 -17 -26 -60 -56 -59
-85 4 -12 26 -22 51 -22 55 0 4 -7 15 -16 23 -15 15 -11 39 5 29 4 -3 6 4 3
15 -4 15 -1 19 9 15 16 -6 21 -42 8 -50 -5 -3 -7 -12 -4 -20 4 -8 10 -12 15
-9 5 3 7 10 4 15 -9 14 5 11 21 -6 14 -13 13 -16 -7 -23 -18 -7 -19 -10 -6
-15 9 -3 18 0 21 9 3 9 10 13 14 10 5 -3 6 9 4 27 -4 28 -3 30 11 19 14 -12
15 -10 11 15 -8 45 -13 55 -29 49 -8 -3 -17 -1 -20 4 -4 6 1 10 11 10 13 0 14
3 5 14 -9 11 -9 15 1 18 8 3 14 -5 16 -19 3 -20 8 -24 27 -19z m481 37 c-4 -5
0 -12 6 -14 8 -4 9 -6 2 -6 -6 -1 -17 6 -24 14 -10 12 -9 15 4 15 10 0 15 -4
12 -9z m-566 -26 c-14 -16 -40 -20 -40 -6 0 10 17 19 39 20 11 1 11 -2 1 -14z
m665 5 c-3 -5 -10 -10 -16 -10 -5 0 -9 5 -9 10 0 6 7 10 16 10 8 0 12 -4 9
-10z m-133 -38 c-2 -13 2 -22 10 -23 32 -2 53 -9 56 -18 7 -20 22 -11 42 27
19 35 20 35 13 7 -3 -16 -10 -33 -16 -36 -5 -4 -7 -11 -3 -17 3 -6 0 -16 -7
-24 -8 -7 -12 -19 -9 -26 5 -15 -3 -15 -31 0 -19 11 -38 14 -97 18 -20 2 -23
39 -4 47 8 3 14 13 14 22 0 14 -2 14 -10 1 -5 -8 -10 -10 -10 -4 0 5 5 15 12
22 9 9 9 12 0 12 -7 0 -12 5 -12 10 0 6 12 9 28 7 21 -3 26 -8 24 -25z m101
-3 c-6 -23 -22 -16 -20 10 0 10 6 17 13 14 6 -2 10 -13 7 -24z m-573 -25 c0
-2 -9 -4 -20 -4 -11 0 -20 4 -20 9 0 5 9 7 20 4 11 -3 20 -7 20 -9z m702 -18
c1 -10 -2 -21 -9 -23 -13 -5 -27 32 -18 48 9 13 22 1 27 -25z m-966 -13 c-11
-11 -19 6 -11 24 8 17 8 17 12 0 3 -10 2 -21 -1 -24z m54 6 c0 -6 -4 -7 -10
-4 -5 3 -10 11 -10 16 0 6 5 7 10 4 6 -3 10 -11 10 -16z m-20 -19 c0 -5 6 -7
14 -4 9 4 23 -13 42 -53 15 -32 27 -61 26 -65 -1 -5 2 -8 8 -8 6 0 10 -10 9
-22 0 -22 -1 -22 -12 -4 -7 11 -20 28 -31 39 -15 16 -20 17 -27 6 -6 -10 -9
-8 -9 8 0 12 8 27 18 32 22 14 6 14 -19 1 -17 -10 -18 -8 -9 16 9 21 7 29 -12
45 -13 10 -17 18 -10 19 6 0 12 -4 12 -10z m1015 0 c-3 -5 -10 -10 -16 -10 -5
0 -9 5 -9 10 0 6 7 10 16 10 8 0 12 -4 9 -10z m-70 -18 c-3 -7 -1 -10 4 -7 5
3 12 1 16 -5 6 -10 -11 -14 -50 -11 -15 1 -21 -5 -22 -20 -2 -20 -1 -21 12 -3
8 11 14 15 14 9 0 -5 -6 -18 -14 -28 -13 -18 -14 -18 -24 1 -7 14 -7 29 0 50
8 24 15 29 40 28 19 -1 28 -5 24 -14z m-977 -17 c-6 -13 -15 -22 -19 -19 -9 5
11 44 23 44 4 0 3 -11 -4 -25z m722 -6 c0 -5 -5 -7 -10 -4 -6 4 -10 3 -9 -2 4
-22 -3 -33 -18 -33 -15 0 -16 2 -3 10 10 6 11 10 3 10 -7 0 -13 7 -13 15 0 9
9 15 25 15 14 0 25 -5 25 -11z m-692 -10 c-2 -6 -8 -10 -13 -10 -5 0 -11 4
-13 10 -2 6 4 11 13 11 9 0 15 -5 13 -11z m726 -10 c-3 -5 6 -9 19 -9 29 0 44
-25 16 -27 -10 -1 -19 2 -19 7 0 4 -8 6 -17 4 -10 -2 -24 0 -32 5 -12 8 -12
11 0 24 14 15 43 12 33 -4z m-805 -12 c-15 -9 -15 -11 0 -26 14 -15 17 -15 29
-1 11 12 14 13 19 1 5 -11 7 -11 14 0 7 12 10 12 21 0 10 -10 10 -12 1 -7 -7
4 -13 2 -13 -3 0 -6 5 -11 12 -11 6 0 20 -8 31 -17 11 -10 17 -12 13 -5 -9 15
10 16 20 0 4 -6 2 -14 -4 -16 -6 -2 -9 -9 -6 -17 6 -15 -31 -39 -46 -30 -6 3
-10 0 -10 -7 -1 -10 -4 -9 -13 2 -7 8 -21 22 -31 30 -18 14 -19 14 -6 -10 12
-23 12 -24 -4 -11 -9 8 -14 21 -11 31 3 11 -5 30 -20 48 -14 16 -25 32 -25 35
0 11 33 38 39 31 3 -3 -1 -11 -10 -17z m1056 13 c3 -5 -1 -10 -9 -10 -9 0 -16
-4 -16 -10 0 -5 -5 -10 -10 -10 -6 0 -5 8 2 20 14 22 24 25 33 10z m55 -10 c0
-5 -2 -10 -4 -10 -3 0 -8 5 -11 10 -3 6 -1 10 4 10 6 0 11 -4 11 -10z m143
-30 c9 0 21 -8 26 -18 7 -14 6 -19 -4 -19 -7 0 -11 6 -8 14 6 16 -11 17 -37 1
-16 -11 -23 -10 -37 6 -17 18 -17 18 4 7 23 -12 43 2 22 15 -8 5 -9 3 -4 -6 5
-9 4 -11 -3 -6 -7 4 -12 14 -12 23 0 15 2 14 18 0 10 -10 26 -17 35 -17z
m-1419 -31 c-20 -23 -36 -25 -28 -4 4 8 12 15 20 15 8 0 14 5 14 10 0 6 -5 10
-11 10 -5 0 -7 5 -3 11 5 8 10 6 16 -5 7 -13 5 -23 -8 -37z m1261 21 c-4 -6
-13 -9 -19 -7 -9 4 -11 -2 -9 -17 7 -35 -18 -49 -56 -30 -17 8 -31 19 -31 23
0 4 -8 7 -17 7 -24 -1 -33 16 -11 20 9 1 22 -4 29 -12 10 -12 14 -11 26 6 8
11 19 18 24 15 15 -10 10 -28 -5 -22 -10 4 -13 1 -9 -9 9 -25 30 -15 37 17 3
17 10 28 16 24 5 -3 10 -1 10 6 0 10 3 10 11 2 6 -6 8 -16 4 -23z m-1301 -46
c4 -9 -3 -18 -17 -23 -16 -6 -23 -5 -25 6 -9 38 28 53 42 17z m1398 0 c-21
-14 -33 -66 -21 -86 10 -16 42 -19 51 -5 10 16 10 43 1 33 -5 -4 -8 -12 -8
-17 0 -24 -20 0 -23 27 -3 26 0 32 15 30 10 0 21 -7 24 -15 3 -8 13 -15 22
-17 10 -1 15 2 12 6 -3 5 3 8 14 7 15 -1 17 -5 10 -19 -5 -10 -16 -15 -24 -12
-11 5 -13 2 -9 -10 4 -10 -2 -19 -20 -27 -14 -7 -26 -18 -26 -26 0 -8 -18 1
-45 24 -47 39 -55 53 -29 53 8 0 12 5 9 11 -4 6 2 19 14 30 12 11 21 24 21 29
0 5 7 7 15 3 14 -5 13 -7 -3 -19z m-1304 -12 c16 -14 18 -22 10 -30 -8 -8 -8
-15 2 -27 7 -8 10 -19 6 -22 -4 -4 -11 -1 -16 7 -9 13 -10 13 -9 0 0 -8 4 -24
9 -35 8 -19 9 -19 9 -1 1 16 4 15 29 -9 19 -19 23 -29 14 -32 -7 -3 -23 -16
-36 -30 l-23 -24 -29 42 c-20 29 -25 44 -16 47 6 2 10 8 6 13 -3 5 3 9 12 9
23 0 13 9 -16 15 -12 2 -25 7 -29 11 -3 4 9 4 27 1 30 -6 33 -5 30 16 -2 13 2
21 10 20 6 -2 12 2 12 7 0 6 -9 10 -20 10 -13 0 -20 -7 -20 -20 0 -11 -4 -20
-10 -20 -5 0 -10 5 -10 10 0 6 -7 10 -15 10 -8 0 -15 5 -15 11 0 5 5 7 12 3 8
-5 9 -2 5 10 -6 15 -3 17 18 12 14 -4 25 -2 25 4 0 14 4 13 28 -8z m1363 -19
c-12 -20 -14 -14 -5 12 4 9 9 14 11 11 3 -2 0 -13 -6 -23z m-633 -16 c-1 -12
2 -33 6 -46 6 -16 5 -21 -3 -17 -7 4 -11 -1 -11 -13 0 -11 -5 -23 -10 -26 -6
-4 -8 -15 -5 -25 3 -10 0 -22 -6 -26 -8 -4 -9 -3 -5 4 5 8 -5 12 -33 12 -34 0
-42 4 -47 24 -3 13 -4 32 -3 42 2 11 0 25 -4 32 -5 7 -4 12 2 12 6 0 11 5 11
10 0 6 -7 10 -15 10 -15 0 -20 12 -10 22 3 3 35 6 70 6 60 0 65 -1 63 -21z
m-195 -8 c4 -15 2 -19 -9 -15 -17 6 -19 -20 -2 -30 7 -4 8 -3 4 4 -4 7 -3 12
2 12 9 0 13 -13 28 -97 5 -28 -22 -32 -29 -5 -4 14 -6 14 -12 -5 -4 -13 -12
-20 -18 -16 -6 4 -8 0 -4 -10 3 -8 0 -18 -8 -21 -7 -2 -16 2 -19 10 -4 10 -2
13 7 8 6 -4 5 1 -4 12 -17 21 -20 60 -3 57 6 -1 11 4 11 12 0 8 -3 14 -6 13
-19 -2 -28 4 -28 17 0 8 7 15 14 15 8 0 11 -5 7 -12 -4 -7 3 -3 14 9 12 12 19
29 16 37 -3 8 2 16 13 19 10 3 19 5 19 6 1 0 4 -8 7 -20z m-487 -6 c8 -12 9
-22 3 -30 -7 -8 -5 -10 9 -6 16 4 20 -1 20 -21 0 -14 -4 -26 -9 -26 -13 0 -38
41 -33 55 3 7 1 16 -5 20 -12 7 -15 25 -5 25 4 0 13 -8 20 -17z m751 3 c-3 -7
0 -19 6 -25 8 -8 17 -5 34 11 13 12 23 16 23 9 0 -6 -7 -14 -15 -17 -23 -9
-18 -24 8 -21 14 1 21 -3 19 -12 -1 -7 2 -19 7 -25 7 -9 7 -21 -2 -39 -14 -32
-32 -30 -32 3 0 13 -7 25 -15 28 -12 4 -13 3 -3 -10 19 -22 -5 -50 -37 -44
-14 2 -26 5 -26 5 -1 1 3 20 8 44 6 23 10 57 9 75 -1 18 3 32 10 32 6 0 9 -6
6 -14z m-903 -18 c-3 -40 -4 -41 -18 -29 -8 6 -16 20 -19 30 -3 14 1 18 17 17
13 -1 21 -7 20 -18z m556 2 c-8 -5 -17 -7 -19 -4 -3 3 1 9 9 14 8 5 17 7 19 4
3 -3 -1 -9 -9 -14z m367 5 c0 -8 -4 -12 -9 -9 -5 3 -6 10 -3 15 9 13 12 11 12
-6z m719 -24 c-13 -20 -29 -12 -23 12 6 21 6 21 -13 -3 -11 -14 -20 -21 -20
-16 0 5 8 18 17 28 14 16 19 17 31 4 8 -8 11 -19 8 -25z m-622 11 c2 -4 -1
-18 -8 -31 -9 -15 -16 -20 -20 -12 -4 6 -1 11 6 11 10 0 10 2 -1 9 -7 5 -10
14 -7 20 8 13 23 14 30 3z m-994 -37 c7 -9 8 -15 2 -15 -5 0 -12 7 -16 15 -3
8 -4 15 -2 15 2 0 9 -7 16 -15z m1068 -7 c14 -14 16 -32 2 -23 -6 3 -7 -1 -4
-10 6 -14 8 -14 19 1 9 13 14 14 20 4 5 -8 2 -18 -8 -25 -21 -15 -22 -35 -2
-35 17 0 20 -16 6 -24 -5 -4 -11 -1 -13 6 -4 10 -10 10 -29 1 -24 -12 -24 -12
-1 -12 27 -1 28 -12 2 -36 -16 -15 -22 -16 -35 -5 -13 11 -13 15 -3 23 10 7 9
8 -3 4 -21 -7 -43 8 -35 22 4 6 12 8 18 5 7 -4 8 -2 4 5 -4 7 -5 19 -1 29 4
11 8 13 13 5 8 -13 40 -21 41 -10 2 21 0 27 -10 27 -5 0 -7 -4 -4 -10 3 -5 2
-10 -3 -10 -6 0 -13 7 -16 16 -8 22 -8 24 8 24 9 0 12 7 9 20 -6 22 7 26 25 8z
m-657 -27 c13 -12 18 -25 14 -33 -6 -10 -5 -11 6 0 21 20 34 14 52 -24 18 -37
15 -54 -9 -54 -8 0 -14 -6 -14 -14 0 -7 -7 -19 -16 -26 -12 -11 -18 -10 -32 5
-9 10 -11 15 -4 11 22 -13 13 10 -15 36 -16 14 -38 37 -50 51 l-22 26 32 20
c18 10 33 20 35 20 2 1 12 -8 23 -18z m44 -1 c3 -5 -1 -10 -9 -10 -9 0 -16 5
-16 10 0 6 4 10 9 10 6 0 13 -4 16 -10z m1035 -20 c0 -5 -5 -10 -11 -10 -5 0
-7 5 -4 10 3 6 8 10 11 10 2 0 4 -4 4 -10z m110 -27 c-1 -24 -2 -25 -11 -10
-5 9 -18 17 -27 18 -11 1 -8 4 8 9 14 4 26 8 28 9 1 1 2 -11 2 -26z m-1549
-10 c13 -16 12 -17 -3 -4 -10 7 -18 15 -18 17 0 8 8 3 21 -13z m692 10 c-7 -2
-21 -2 -30 0 -10 3 -4 5 12 5 17 0 24 -2 18 -5z m186 -22 c-3 -6 -10 -7 -18
-2 -7 5 -10 14 -6 21 9 14 29 -2 24 -19z m-969 -20 c36 -31 42 -42 33 -52 -10
-10 -18 -7 -38 14 -15 14 -32 24 -39 21 -14 -5 -26 22 -19 44 7 18 14 15 63
-27z m1557 14 c-8 -20 -27 -20 -27 1 0 8 5 12 10 9 6 -3 10 -1 10 6 0 7 3 10
6 6 4 -3 4 -13 1 -22z m-314 -49 c-4 -6 -8 -18 -8 -26 0 -8 -6 -14 -13 -12 -8
1 -11 -2 -6 -9 5 -9 2 -10 -9 -6 -9 3 -19 2 -22 -4 -4 -5 -3 -9 2 -8 19 3 33
-2 33 -12 0 -6 -7 -9 -15 -5 -9 3 -15 0 -15 -9 0 -12 -38 -32 -44 -23 -25 37
-36 59 -27 54 6 -4 11 -2 11 4 0 6 5 8 12 4 7 -4 8 -3 4 4 -8 13 41 61 63 62
8 0 11 6 7 17 -6 15 -5 15 13 -1 11 -10 17 -24 14 -30z m-891 12 c9 -13 17
-27 17 -32 -1 -5 5 -13 13 -17 10 -7 9 -9 -4 -9 -9 0 -19 6 -21 13 -3 7 -6 5
-6 -5 -1 -13 7 -18 27 -19 15 0 21 -3 14 -6 -6 -2 -10 -9 -6 -14 3 -5 -4 -9
-15 -9 -23 0 -28 -16 -8 -23 6 -2 9 -7 6 -11 -10 -11 -41 6 -35 19 4 11 -38
70 -46 64 -2 -2 -14 0 -28 4 -20 6 -22 9 -11 16 10 7 19 4 28 -7 9 -13 12 -13
13 -3 0 10 3 11 13 3 10 -9 17 -6 30 8 19 23 7 35 -28 26 -19 -5 -23 -3 -19 9
9 22 47 18 66 -7z m472 3 c4 -1 6 -8 3 -16 -4 -8 -2 -17 3 -20 5 -3 7 -12 4
-20 -4 -8 -10 -13 -14 -10 -5 3 -6 -4 -3 -15 3 -12 0 -20 -6 -20 -7 0 -10 4
-7 8 3 5 -9 7 -27 4 -24 -2 -28 -1 -17 7 12 8 9 12 -13 20 -15 6 -27 13 -27
16 0 4 5 3 11 -1 8 -5 10 1 7 19 -6 29 8 37 52 32 14 -2 29 -4 34 -4z m-133
-40 c-9 -15 -11 -22 -3 -18 8 6 12 2 12 -10 0 -15 2 -16 10 -3 8 13 10 13 10
-1 0 -9 -14 -20 -35 -26 -34 -11 -53 -3 -41 16 3 5 -2 15 -12 22 -16 13 -16
12 -2 -6 15 -20 14 -20 -8 -1 -12 11 -20 21 -17 24 15 15 53 30 76 29 26 -1
26 -2 10 -26z m217 23 c13 -4 22 -15 23 -28 1 -17 2 -18 6 -3 6 24 28 16 29
-11 1 -15 -14 -34 -44 -59 -26 -21 -43 -32 -38 -25 4 7 1 12 -8 12 -9 0 -16 5
-16 11 0 5 -4 8 -9 4 -5 -3 -12 -1 -16 5 -6 10 33 100 44 100 3 0 16 -3 29 -6z
m-638 -59 c7 -8 16 -12 21 -9 15 9 38 -21 29 -37 -8 -12 -11 -12 -22 0 -11 12
-10 13 2 7 8 -4 4 2 -10 14 -14 11 -34 25 -45 30 -15 7 -16 9 -4 9 9 1 22 -6
29 -14z m329 -7 c32 -22 34 -42 8 -65 -11 -10 -17 -13 -14 -7 9 16 -24 27 -37
13 -8 -9 -7 -11 5 -6 9 3 16 0 16 -9 0 -18 0 -18 -47 6 -41 21 -54 35 -22 23
15 -6 16 -5 2 12 -14 17 -13 18 3 12 12 -5 16 -3 11 5 -8 12 20 37 39 34 7 -1
23 -9 36 -18z m441 -20 c0 -16 -16 -7 -34 19 l-20 27 27 -20 c14 -10 27 -22
27 -26z m220 28 c-25 -15 -45 -12 -35 5 4 5 18 9 33 9 l27 -1 -25 -13z m406
-23 c0 -9 9 -22 21 -28 25 -13 19 -26 -17 -41 -51 -22 -65 6 -28 56 25 35 26
35 24 13z m-660 -20 c-4 -9 -2 -11 6 -7 7 5 9 2 5 -9 -3 -9 -2 -17 3 -19 14
-5 16 -32 3 -34 -7 -1 -18 -2 -24 -3 -5 0 -8 -5 -5 -9 2 -4 -13 -8 -35 -8 -30
0 -38 3 -34 13 2 8 1 12 -4 9 -5 -3 -11 0 -14 8 -4 9 12 28 40 50 44 35 70 39
59 9z m734 8 c0 -6 -4 -13 -10 -16 -5 -3 -10 1 -10 9 0 9 5 16 10 16 6 0 10
-4 10 -9z m-1529 -44 c1 -17 2 -18 6 -4 2 9 8 17 12 17 14 0 46 -35 46 -49 0
-8 7 -16 15 -18 12 -4 12 -3 2 5 -11 8 -11 10 0 14 17 7 38 -1 38 -14 0 -18
-32 -78 -42 -78 -5 0 -7 4 -4 9 3 4 -5 6 -17 4 -12 -2 -40 3 -62 12 -22 8 -30
14 -18 11 32 -6 49 58 19 70 -8 3 -12 12 -9 20 3 8 0 14 -7 14 -6 0 -8 5 -5
10 10 15 25 2 26 -23z m579 21 c0 -5 5 -6 10 -3 13 8 73 -52 65 -65 -3 -5 0
-10 7 -10 9 0 9 -3 -2 -10 -10 -6 -11 -10 -2 -10 7 0 12 -13 11 -32 0 -28 -2
-30 -9 -13 -5 11 -9 15 -9 8 -1 -6 -4 -19 -8 -29 -4 -12 -3 -15 5 -10 22 14
12 -10 -15 -36 -57 -53 -114 -62 -169 -29 -34 21 -82 81 -65 81 6 0 11 5 11
11 0 5 -4 8 -9 4 -5 -3 -12 -1 -16 5 -3 5 2 10 12 10 15 0 15 2 4 9 -13 8 -12
15 4 50 18 41 47 55 59 29 3 -7 3 -3 0 9 -3 14 1 25 12 31 21 12 104 12 104 0z
m284 -46 c0 -22 4 -38 7 -36 11 6 18 -60 8 -70 -5 -6 -9 -1 -9 13 0 17 -4 22
-16 17 -8 -3 -12 -2 -9 3 3 6 1 30 -5 55 -11 49 -4 84 13 67 5 -5 10 -27 11
-49z m226 38 c10 -18 7 -24 -12 -21 -5 0 -8 -6 -8 -15 0 -10 6 -14 15 -10 8 3
15 1 15 -3 0 -5 2 -16 6 -24 3 -10 -8 -18 -43 -28 -26 -7 -52 -12 -58 -10 -5
2 -16 4 -22 4 -7 0 -13 5 -14 11 0 6 -2 21 -5 33 -2 12 1 25 6 28 6 3 10 1 10
-6 0 -7 3 -9 8 -5 4 4 7 12 7 17 0 5 5 10 10 10 6 1 21 10 34 20 30 24 38 24
51 -1z m-935 -18 c-3 -3 -11 0 -18 7 -9 10 -8 11 6 5 10 -3 15 -9 12 -12z
m149 -19 c34 -16 35 -18 29 -57 -3 -23 -6 -42 -7 -43 -1 -1 -21 1 -46 4 -41 6
-42 7 -19 16 13 6 27 9 32 9 4 -1 7 2 7 7 0 5 3 18 6 28 6 16 5 16 -9 -2 -14
-17 -18 -18 -27 -5 -9 13 -10 13 -11 0 -1 -8 -1 -18 0 -22 0 -5 -3 -8 -9 -8
-5 0 -10 8 -11 18 0 9 -2 27 -5 39 -2 14 2 23 14 26 9 3 18 5 19 6 1 0 18 -7
37 -16z m-319 -23 c3 -6 -1 -7 -9 -4 -18 7 -21 14 -7 14 6 0 13 -4 16 -10z
m243 -38 c2 -7 -3 -12 -12 -12 -9 0 -16 7 -16 16 0 17 22 14 28 -4z m602 -1
c0 -6 -4 -13 -10 -16 -5 -3 -10 -1 -10 4 0 6 -4 11 -10 11 -5 0 -9 -3 -9 -7 5
-29 -4 -54 -22 -64 -14 -7 -19 -7 -15 0 4 6 -4 13 -19 17 -30 7 -33 24 -5 24
21 0 28 19 8 21 -21 2 34 17 65 18 15 1 27 -3 27 -8z m650 -11 c0 -5 -4 -10
-10 -10 -5 0 -10 5 -10 10 0 6 5 10 10 10 6 0 10 -4 10 -10z m-1253 -16 c-3
-3 -12 -4 -19 -1 -8 3 -5 6 6 6 11 1 17 -2 13 -5z m-210 -10 c-3 -3 -12 -4
-19 -1 -8 3 -5 6 6 6 11 1 17 -2 13 -5z m796 -24 c-7 -27 -13 -25 -11 4 1 14
5 23 9 20 4 -2 5 -13 2 -24z m662 21 c3 -5 2 -12 -3 -15 -5 -3 -9 1 -9 9 0 17
3 19 12 6z m-1418 -7 c-3 -3 -12 -4 -19 -1 -8 3 -5 6 6 6 11 1 17 -2 13 -5z
m1037 -21 c-11 -10 -15 -15 -10 -11 12 9 50 -28 41 -41 -3 -6 0 -11 7 -11 9 0
10 -3 2 -8 -6 -4 -10 -15 -8 -25 1 -10 -3 -16 -9 -14 -7 2 -11 21 -10 43 1 23
-1 29 -4 14 -6 -33 -23 -50 -24 -24 0 17 -1 17 -9 -3 -5 -13 -17 -23 -25 -23
-10 0 -13 5 -9 12 5 8 -3 10 -27 6 -31 -6 -35 -4 -37 18 -1 17 5 27 21 33 12
5 26 6 31 3 5 -3 6 0 2 6 -4 7 -18 9 -33 6 -19 -5 -24 -3 -21 7 6 19 79 33 90
17 5 -9 8 -9 8 -1 0 6 8 13 18 15 25 6 27 1 6 -19z m-778 -5 c5 -7 -1 -9 -19
-6 -15 3 -28 1 -29 -4 -2 -5 -15 -5 -31 1 -18 7 -26 7 -22 1 3 -6 13 -10 21
-10 12 0 13 -4 3 -22 -11 -21 -11 -22 4 -10 9 8 21 11 27 7 5 -3 10 1 10 9 0
10 8 16 23 15 12 0 16 -3 9 -6 -10 -4 -10 -8 -1 -19 9 -11 8 -14 -4 -14 -9 0
-19 -5 -23 -11 -4 -8 1 -9 17 -5 24 7 24 7 -1 -7 -36 -21 -74 -31 -66 -19 3 6
2 13 -4 17 -5 3 -10 0 -10 -7 0 -8 -5 -6 -11 5 -5 9 -8 21 -4 26 3 5 0 13 -6
16 -7 5 -9 -8 -5 -41 4 -35 3 -42 -3 -24 -14 38 -13 93 1 84 7 -5 8 -3 3 6 -4
7 -2 16 5 20 19 12 108 11 116 -2z m-352 -58 c8 0 21 -11 30 -24 8 -14 24 -24
35 -23 16 1 18 7 14 39 -2 21 0 38 5 38 17 0 20 -26 10 -73 -9 -43 -12 -47
-38 -47 -21 0 -28 4 -24 14 3 7 -11 29 -30 48 -28 28 -33 39 -28 63 l7 30 3
-32 c2 -19 9 -33 16 -33z m870 44 c3 -8 2 -12 -4 -9 -6 3 -10 10 -10 16 0 14
7 11 14 -7z m626 -4 c0 -11 -2 -20 -4 -20 -2 0 -6 9 -9 20 -3 11 -1 20 4 20 5
0 9 -9 9 -20z m-1534 -17 c-10 -10 -19 5 -10 18 6 11 8 11 12 0 2 -7 1 -15 -2
-18z m84 16 c0 -5 5 -7 10 -4 11 7 12 3 4 -18 -5 -13 -8 -13 -25 4 -23 23 -24
29 -4 29 8 0 15 -5 15 -11z m724 -31 c-3 -5 0 -8 5 -8 13 0 15 -37 2 -44 -14
-9 -71 60 -59 72 11 11 59 -8 52 -20z m-297 -88 c21 -20 47 -39 57 -43 10 -4
16 -10 13 -13 -11 -11 21 -34 45 -33 13 1 28 1 33 -1 34 -9 47 1 43 29 -3 23
0 31 16 35 32 9 46 7 43 -5 -1 -6 6 -13 15 -14 13 -2 19 6 24 31 9 49 30 62
54 36 11 -12 20 -26 20 -32 0 -6 4 -9 9 -6 5 3 7 15 4 26 -3 12 0 20 8 20 8 0
5 6 -7 15 -14 11 -15 14 -2 9 13 -4 16 0 14 20 -4 34 21 35 30 2 3 -14 4 -28
1 -33 -3 -4 1 -14 9 -21 10 -10 14 -10 14 -1 0 7 3 10 6 7 3 -4 -5 -22 -18
-41 -30 -46 -113 -100 -155 -101 -18 -1 -33 -5 -33 -10 0 -4 -26 -7 -58 -4
-126 9 -229 96 -248 210 -5 32 -4 31 10 -7 8 -22 32 -56 53 -75z m1053 100 c0
-5 -4 -10 -10 -10 -5 0 -10 5 -10 10 0 6 5 10 10 10 6 0 10 -4 10 -10z m-713
-15 c-6 -7 -15 -11 -19 -8 -14 8 -8 19 12 20 16 1 17 -1 7 -12z m-853 -27 c-3
-4 0 -17 6 -28 9 -16 8 -20 -5 -20 -11 0 -15 11 -15 43 0 29 3 38 9 27 6 -8 8
-18 5 -22z m116 3 c0 -6 -4 -13 -10 -16 -5 -3 -10 -1 -10 5 0 6 -4 8 -10 5 -5
-3 -10 -1 -10 4 0 6 9 11 20 11 11 0 20 -4 20 -9z m640 -34 c18 -25 19 -28 4
-14 -25 21 -41 23 -24 2 15 -18 11 -24 -18 -30 -27 -5 -39 44 -14 63 22 16 23
16 52 -21z m-332 -18 c10 -16 10 -24 1 -35 -6 -7 -16 -11 -23 -7 -6 3 -8 2 -3
-2 4 -5 -3 -19 -15 -32 -21 -23 -45 -32 -33 -13 4 6 3 10 -2 9 -20 -3 -23 2
-12 23 10 18 9 20 -5 15 -8 -3 -18 -2 -21 4 -4 5 -12 6 -18 3 -7 -4 -5 0 3 8
18 19 79 40 91 32 5 -3 9 0 9 5 0 18 14 13 28 -10z m217 11 c-3 -5 -13 -10
-21 -10 -8 0 -12 -5 -9 -11 4 -6 13 -8 21 -5 10 4 14 -2 14 -19 0 -14 -5 -25
-11 -25 -6 0 -9 7 -5 15 4 10 -1 15 -14 15 -29 0 -26 37 3 43 12 2 23 5 25 6
2 0 0 -3 -3 -9z m395 -10 c0 -5 -4 -10 -10 -10 -5 0 -10 5 -10 10 0 6 5 10 10
10 6 0 10 -4 10 -10z m69 -5 c-1 -5 -4 -20 -7 -33 l-7 -23 -22 21 c-33 30 -30
51 7 48 17 -1 30 -7 29 -13z m31 -15 c0 -11 -4 -20 -10 -20 -5 0 -10 9 -10 20
0 11 5 20 10 20 6 0 10 -9 10 -20z m429 -9 c11 -11 22 -17 25 -13 3 3 6 0 6
-6 0 -18 -12 -14 -45 13 -16 14 -24 25 -17 25 6 0 21 -9 31 -19z m-529 -16 c0
-18 -13 -25 -28 -16 -17 10 -4 41 14 34 8 -3 14 -11 14 -18z m-1020 -19 c0 -3
-4 -8 -10 -11 -5 -3 -10 -1 -10 4 0 6 5 11 10 11 6 0 10 -2 10 -4z m120 -16
c0 -11 -4 -20 -10 -20 -5 0 -10 4 -10 8 0 9 -42 8 -58 -2 -7 -4 -17 -4 -23 -1
-18 12 24 34 64 35 30 0 37 -3 37 -20z m198 -15 l19 -24 23 24 c13 14 28 25
34 25 6 0 -5 -14 -24 -31 -19 -17 -34 -36 -32 -41 7 -26 9 -117 2 -128 -8 -14
-14 6 -25 95 -4 28 -12 56 -17 63 -6 6 -7 12 -3 12 4 0 2 7 -5 15 -8 9 -8 15
-2 15 6 0 19 -11 30 -25z m153 3 c21 -26 24 -45 8 -50 -5 -2 -11 -12 -13 -21
-2 -19 -23 -37 -41 -37 -5 1 -2 7 8 15 10 7 22 29 26 47 8 33 7 34 -22 30 -21
-3 -28 -1 -22 7 4 7 13 10 21 7 8 -3 11 0 7 10 -8 21 6 17 28 -8z m601 4 c17
-17 -4 -15 -28 2 -17 13 -17 14 -1 12 9 -1 23 -8 29 -14z m478 3 c0 -8 -7 -15
-15 -15 -16 0 -20 12 -8 23 11 12 23 8 23 -8z m-1540 -25 c0 -5 -5 -10 -11
-10 -5 0 -7 5 -4 10 3 6 8 10 11 10 2 0 4 -4 4 -10z m80 -5 c0 -8 -4 -15 -9
-15 -5 0 -11 7 -15 15 -3 9 0 15 9 15 8 0 15 -7 15 -15z m837 0 c0 -8 -4 -12
-9 -9 -5 3 -6 10 -3 15 9 13 12 11 12 -6z m-807 -25 c0 -5 -4 -10 -10 -10 -5
0 -10 5 -10 10 0 6 5 10 10 10 6 0 10 -4 10 -10z m294 -30 c-7 -7 -16 -5 -30
5 -16 13 -17 16 -4 24 19 13 50 -13 34 -29z m-414 14 c0 -8 -4 -12 -10 -9 -5
3 -10 10 -10 16 0 5 5 9 10 9 6 0 10 -7 10 -16z m85 6 c3 -5 -3 -10 -14 -10
-12 0 -21 5 -21 10 0 6 6 10 14 10 8 0 18 -4 21 -10z m874 -4 c10 -12 8 -17
-9 -26 -20 -10 -21 -10 -11 8 6 11 7 22 4 26 -3 3 -4 6 -1 6 3 0 11 -6 17 -14z
m34 0 c7 -17 -18 -54 -29 -44 -4 4 -1 14 5 22 7 8 10 20 6 26 -3 5 -2 10 3 10
6 0 12 -6 15 -14z m-428 -6 c4 -6 11 -7 17 -4 7 4 8 2 4 -5 -4 -6 0 -14 9 -17
11 -5 15 -17 13 -45 -2 -33 -5 -38 -25 -37 -13 2 -23 6 -23 11 0 5 6 7 13 4 8
-3 12 6 13 29 0 19 -3 34 -8 34 -8 0 -12 -15 -9 -37 2 -16 -11 -17 -27 -1 -8
8 -12 9 -12 1 0 -6 6 -13 13 -16 6 -2 9 -7 6 -11 -10 -10 -61 13 -54 24 4 6
11 8 16 5 5 -3 6 1 3 10 -5 12 -2 14 12 8 16 -6 17 -4 6 9 -7 8 -10 23 -6 32
7 18 29 21 39 6z m295 -11 c0 -5 -4 -7 -10 -4 -5 3 -10 -4 -10 -16 0 -18 2
-19 15 -9 13 10 19 9 36 -6 19 -17 19 -19 3 -31 -9 -7 -21 -10 -27 -6 -6 3
-16 -2 -23 -12 -9 -12 -19 -15 -31 -9 -16 7 -16 8 4 11 19 4 21 8 13 24 -6 10
-8 19 -5 19 4 0 3 5 -1 12 -5 7 -11 5 -21 -7 -8 -13 -13 -14 -13 -5 0 7 8 21
18 31 19 20 52 25 52 8z m-773 -5 c-3 -3 -12 -4 -19 -1 -8 3 -5 6 6 6 11 1 17
-2 13 -5z m646 -18 c6 -16 -16 -28 -37 -20 -17 7 -29 -46 -14 -63 8 -10 5 -13
-10 -13 -19 0 -21 6 -21 55 l1 55 38 0 c23 0 40 -5 43 -14z m745 -13 c-2 -10
3 -18 12 -18 8 0 16 -10 18 -22 2 -13 9 -20 16 -17 7 3 22 1 34 -3 16 -6 19
-12 12 -23 -7 -11 -10 -11 -10 -2 0 7 -4 10 -10 7 -5 -3 -10 -2 -10 4 0 6 -7
8 -15 4 -9 -3 -23 3 -31 13 -13 16 -15 16 -10 2 4 -14 1 -15 -15 -9 -23 8 -24
10 -15 51 6 31 29 43 24 13z m-1334 -19 c4 -9 4 -19 2 -21 -8 -8 -26 8 -26 23
0 19 16 18 24 -2z m854 -15 c-3 -8 -7 -3 -11 10 -4 17 -3 21 5 13 5 -5 8 -16
6 -23z m-248 7 c0 -8 3 -21 6 -30 9 -22 -35 -21 -51 1 -11 14 -10 20 4 30 22
17 41 16 41 -1z m-700 -6 c0 -5 -8 -10 -17 -10 -15 0 -16 2 -3 10 19 12 20 12
20 0z m95 -34 c17 -9 21 -15 13 -18 -7 -3 -24 6 -38 20 -14 13 -19 22 -12 18
6 -4 23 -13 37 -20z m368 7 c-7 -2 -19 -2 -25 0 -7 3 -2 5 12 5 14 0 19 -2 13
-5z m-408 -40 c3 -13 2 -23 -3 -23 -11 0 -22 24 -22 48 0 21 15 5 25 -25z
m105 -48 c0 -9 -10 -15 -22 -16 -22 -1 -22 -1 2 -9 23 -7 23 -8 3 -9 -30 -1
-39 17 -17 34 25 19 34 18 34 0z m40 -54 c0 -4 -6 -8 -14 -8 -8 0 -12 6 -9 14
5 13 23 9 23 -6z m-90 -2 c0 -4 9 -6 20 -4 19 4 26 -5 14 -18 -6 -5 -64 19
-64 27 0 1 7 3 15 3 8 0 15 -4 15 -8z m1218 5 c12 -4 22 -10 22 -15 0 -13 -23
-10 -44 6 -21 16 -15 18 22 9z m61 -23 c-5 -1 -2 -9 8 -17 16 -12 16 -13 2
-14 -27 0 -44 27 -29 45 11 13 15 13 21 3 5 -7 4 -15 -2 -17z m-1119 -102 c0
-5 -4 -9 -10 -9 -5 0 -10 7 -10 15 0 8 -4 15 -10 15 -5 0 -10 -6 -10 -14 0 -8
-7 -16 -15 -20 -21 -8 -19 19 3 44 l17 21 18 -22 c9 -12 17 -25 17 -30z m1060
31 c0 -5 -9 -14 -20 -20 -16 -9 -20 -8 -20 5 0 9 5 13 10 10 6 -3 10 -1 10 4
0 6 5 11 10 11 6 0 10 -4 10 -10z m-1090 -64 c0 -24 -18 -28 -42 -12 -25 18
-17 21 12 6 16 -8 18 -8 14 5 -4 8 -1 15 5 15 6 0 11 -6 11 -14z m137 8 c-3
-4 -2 -15 4 -25 7 -15 6 -19 -6 -19 -25 0 -17 -27 10 -32 33 -7 37 0 18 28 -9
14 -13 27 -10 30 6 7 67 -18 67 -27 0 -11 -61 -50 -70 -44 -6 4 -13 0 -16 -9
-3 -8 -14 -13 -27 -11 -27 6 -42 21 -28 29 6 4 11 3 11 -2 0 -5 6 -9 14 -9 11
0 12 4 3 19 -10 16 -9 21 6 29 9 6 15 14 12 20 -6 9 2 29 12 29 4 0 3 -3 0 -6z
m-107 -23 c0 -20 -13 -35 -23 -25 -7 8 4 44 14 44 5 0 9 -9 9 -19z m854 3 c4
-9 4 -19 1 -22 -3 -3 -5 -1 -5 5 0 6 -7 14 -16 17 -12 5 -15 2 -10 -11 6 -14
4 -15 -5 -6 -6 6 -8 16 -5 22 11 16 33 13 40 -5z m136 8 c0 -14 -11 -21 -26
-15 -21 8 -17 23 6 23 11 0 20 -4 20 -8z m-210 -54 c0 -4 -5 -8 -11 -8 -5 0
-7 5 -4 10 3 6 1 10 -4 10 -6 0 -11 8 -11 18 1 15 2 15 15 -2 8 -11 15 -23 15
-28z m105 12 c3 -5 -1 -10 -10 -10 -9 0 -13 5 -10 10 3 6 8 10 10 10 2 0 7 -4
10 -10z m-40 -10 c-3 -5 -11 -10 -16 -10 -6 0 -7 5 -4 10 3 6 11 10 16 10 6 0
7 -4 4 -10z m-501 -31 c5 -4 -1 -5 -13 -2 -15 4 -21 1 -21 -11 0 -18 -35 -22
-45 -6 -4 6 -11 8 -16 5 -16 -11 -10 12 8 26 15 12 16 12 10 -3 -7 -20 13 -29
29 -14 8 8 7 14 -5 24 -13 10 -11 10 14 0 17 -6 34 -15 39 -19z m536 17 c0 -3
-4 -8 -10 -11 -5 -3 -10 -1 -10 4 0 6 5 11 10 11 6 0 10 -2 10 -4z m-700 -10
c0 -3 -4 -8 -10 -11 -5 -3 -10 -1 -10 4 0 6 5 11 10 11 6 0 10 -2 10 -4z m654
-5 c18 -7 18 -8 3 -14 -9 -3 -17 -2 -17 4 0 6 -4 8 -8 5 -4 -2 -14 -1 -22 5
-12 7 -11 9 5 8 11 0 29 -4 39 -8z m-374 -6 c0 -2 -9 -9 -20 -15 -16 -9 -18
-8 -14 5 5 13 34 22 34 10z m-320 -16 c0 -6 7 -9 15 -5 8 3 15 1 15 -4 0 -11
-21 -13 -44 -4 -9 3 -13 10 -10 15 7 13 24 11 24 -2z m385 2 c3 -5 2 -12 -3
-15 -5 -3 -9 1 -9 9 0 17 3 19 12 6z m-169 -8 c-10 -11 -36 -12 -36 -2 0 5 10
9 22 9 12 0 18 -3 14 -7z m144 -10 c0 -11 -3 -14 -8 -7 -4 6 -14 14 -22 17
-10 4 -8 6 8 6 15 1 22 -5 22 -16z m-245 -4 c11 -16 1 -19 -13 -3 -7 8 -8 14
-3 14 5 0 13 -5 16 -11z m408 0 c-6 -6 -9 -18 -6 -25 6 -16 -13 -19 -22 -3 -4
6 1 17 11 24 23 17 32 19 17 4z m-353 -7 c0 -12 -22 -32 -34 -32 -6 0 -3 5 7
11 9 6 15 14 12 20 -4 5 -1 9 4 9 6 0 11 -4 11 -8z m-50 -28 c0 -2 -9 -4 -20
-4 -11 0 -20 4 -20 9 0 5 9 7 20 4 11 -3 20 -7 20 -9z m87 -10 c-2 -2 -12 -1
-22 3 -18 6 -18 7 1 13 17 7 33 -5 21 -16z m93 19 c0 -5 -5 -15 -10 -23 -7
-12 -9 -10 -7 8 1 19 17 33 17 15z m40 -23 c0 -5 -4 -10 -10 -10 -5 0 -10 5
-10 10 0 6 5 10 10 10 6 0 10 -4 10 -10z"/>
<path d="M650 1676 c0 -8 5 -18 10 -21 6 -3 10 1 10 9 0 8 -4 18 -10 21 -5 3
-10 -1 -10 -9z"/>
<path d="M1150 1630 c0 -5 5 -10 10 -10 6 0 10 5 10 10 0 6 -4 10 -10 10 -5 0
-10 -4 -10 -10z"/>
<path d="M400 1482 c0 -7 -6 -12 -14 -12 -8 0 -18 -4 -21 -10 -9 -15 8 -12 31
4 10 8 16 18 11 22 -4 4 -7 2 -7 -4z"/>
<path d="M864 1429 c-2 -5 -10 -6 -18 -3 -9 4 -11 -4 -7 -28 4 -25 6 -28 9
-11 4 29 24 44 42 33 11 -7 11 -11 1 -23 -10 -13 -9 -15 8 -10 16 4 18 9 9 27
-10 22 -34 30 -44 15z"/>
<path d="M675 1300 c3 -5 8 -10 11 -10 2 0 4 5 4 10 0 6 -5 10 -11 10 -5 0 -7
-4 -4 -10z"/>
<path d="M1000 1350 c-12 -8 -13 -11 -2 -22 11 -11 13 -10 10 2 -2 9 4 14 15
14 9 -1 17 2 17 7 0 12 -21 11 -40 -1z"/>
<path d="M480 1290 c0 -5 5 -10 11 -10 5 0 7 5 4 10 -3 6 -8 10 -11 10 -2 0
-4 -4 -4 -10z"/>
<path d="M534 1249 c-10 -16 19 -20 34 -6 14 15 13 16 -7 14 -12 -1 -25 -5
-27 -8z"/>
<path d="M545 1210 c3 -5 8 -10 11 -10 2 0 4 5 4 10 0 6 -5 10 -11 10 -5 0 -7
-4 -4 -10z"/>
<path d="M1267 1181 c-4 -17 -3 -21 5 -13 5 5 8 16 6 23 -3 8 -7 3 -11 -10z"/>
<path d="M986 1105 c-11 -8 -17 -17 -14 -20 2 -3 13 4 23 15 21 23 18 25 -9 5z"/>
<path d="M680 1079 c0 -5 5 -7 10 -4 6 3 10 8 10 11 0 2 -4 4 -10 4 -5 0 -10
-5 -10 -11z"/>
<path d="M1723 1085 c-8 -9 -9 -15 0 -24 15 -15 24 -14 30 3 8 21 -15 37 -30
21z"/>
<path d="M1065 1050 c3 -5 8 -10 11 -10 2 0 4 5 4 10 0 6 -5 10 -11 10 -5 0
-7 -4 -4 -10z"/>
<path d="M320 1025 c7 -9 15 -13 17 -11 7 7 -7 26 -19 26 -6 0 -6 -6 2 -15z"/>
<path d="M320 976 c0 -8 6 -16 13 -19 17 -6 47 4 47 15 0 5 -6 8 -12 5 -7 -2
-21 0 -30 5 -13 6 -18 5 -18 -6z"/>
<path d="M858 1020 c-14 -16 -15 -20 -2 -31 12 -10 13 -9 9 4 -4 9 3 21 17 31
14 10 17 16 8 15 -8 0 -23 -9 -32 -19z"/>
<path d="M745 1009 c11 -7 22 -16 25 -20 3 -4 13 -1 23 6 17 12 16 13 -5 12
-13 0 -32 3 -43 7 l-20 8 20 -13z"/>
<path d="M922 960 c0 -14 2 -19 5 -12 2 6 2 18 0 25 -3 6 -5 1 -5 -13z"/>
<path d="M714 943 c2 -13 0 -23 -5 -23 -17 0 -9 -22 20 -51 16 -16 38 -29 48
-29 11 1 4 8 -19 21 -21 11 -38 24 -38 29 0 15 8 12 30 -10 11 -11 26 -20 33
-19 10 0 10 2 0 6 -17 6 -16 30 1 40 12 7 12 11 -1 28 -15 20 -15 20 -9 -1 8
-27 -16 -51 -32 -31 -6 7 -16 24 -22 38 -10 22 -10 22 -6 2z"/>
<path d="M850 924 c-11 -12 -10 -13 2 -9 8 3 21 -2 29 -11 8 -10 9 -15 3 -11
-7 4 -15 0 -18 -9 -4 -10 -15 -14 -33 -12 -16 2 -28 -2 -31 -11 -3 -8 0 -11 7
-7 6 4 11 3 11 -3 0 -5 -6 -12 -12 -14 -7 -3 -1 -6 15 -6 15 -1 27 4 27 10 0
5 -4 7 -10 4 -5 -3 -10 -1 -10 4 0 6 9 11 19 11 11 0 23 5 26 10 8 12 25 13
25 2 0 -5 -10 -14 -22 -20 -13 -6 -18 -11 -12 -11 15 -1 64 38 64 51 0 6 -7 5
-17 -3 -15 -13 -15 -12 -4 9 7 13 10 26 7 30 -3 3 -6 0 -6 -6 0 -16 -16 -15
-33 3 -13 13 -16 13 -27 -1z"/>
<path d="M1341 1069 c-13 -5 -22 -11 -20 -14 8 -7 49 7 49 16 0 5 -1 9 -2 8
-2 0 -14 -5 -27 -10z"/>
<path d="M1288 1010 c-14 -16 -15 -20 -2 -31 10 -8 14 -8 14 0 0 6 6 11 14 11
9 0 12 7 9 20 -6 24 -13 24 -35 0z"/>
<path d="M1070 720 c0 -5 5 -10 11 -10 5 0 7 5 4 10 -3 6 -8 10 -11 10 -2 0
-4 -4 -4 -10z"/>
<path d="M995 690 c-3 -5 1 -10 9 -10 9 0 16 5 16 10 0 6 -4 10 -9 10 -6 0
-13 -4 -16 -10z"/>
<path d="M988 663 c6 -2 18 -2 25 0 6 3 1 5 -13 5 -14 0 -19 -2 -12 -5z"/>
<path d="M570 725 c0 -9 6 -12 15 -9 8 4 12 10 9 15 -8 14 -24 10 -24 -6z"/>
<path d="M1079 553 c-12 -15 -12 -16 3 -10 9 3 18 1 21 -6 2 -8 5 -8 11 1 4 7
2 12 -4 12 -6 0 -8 5 -5 10 10 17 -12 11 -26 -7z"/>
<path d="M695 170 c-3 -5 -1 -10 4 -10 6 0 11 5 11 10 0 6 -2 10 -4 10 -3 0
-8 -4 -11 -10z"/>
</g>
</svg>
